<svg width="136" height="52" viewBox="0 0 136 52" fill="none" xmlns="http://www.w3.org/2000/svg">
<path opacity="0.6" d="M3.08239 15H4.35511L6.60227 6.88636H6.68182L8.92898 15H10.2017L12.9858 4.81818H11.733L9.60511 13.1108H9.50568L7.33807 4.81818H5.94602L3.77841 13.1108H3.67898L1.55114 4.81818H0.298295L3.08239 15ZM16.8537 15.1591C18.4048 15.1591 19.5384 14.3835 19.8963 13.2301L18.7628 12.9119C18.4645 13.7074 17.7734 14.1051 16.8537 14.1051C15.4766 14.1051 14.527 13.2152 14.4723 11.5795H20.0156V11.0824C20.0156 8.23864 18.3253 7.2642 16.7344 7.2642C14.6662 7.2642 13.294 8.89489 13.294 11.2415C13.294 13.5881 14.6463 15.1591 16.8537 15.1591ZM14.4723 10.5653C14.5518 9.37713 15.392 8.31818 16.7344 8.31818C18.0071 8.31818 18.8224 9.27273 18.8224 10.5653H14.4723ZM27.9851 15.179C29.3175 15.179 30.0135 14.4631 30.2521 13.9659H30.3118V15H31.4851V9.96875C31.4851 7.54261 29.6357 7.2642 28.6612 7.2642C27.5078 7.2642 26.1953 7.66193 25.5987 9.05398L26.7124 9.4517C26.9709 8.89489 27.5824 8.2983 28.701 8.2983C29.7798 8.2983 30.3118 8.87003 30.3118 9.84943V9.8892C30.3118 10.456 29.7351 10.4062 28.343 10.5852C26.9261 10.7692 25.38 11.0824 25.38 12.8324C25.38 14.3239 26.5334 15.179 27.9851 15.179ZM28.1641 14.125C27.2294 14.125 26.5533 13.7074 26.5533 12.892C26.5533 11.9972 27.3686 11.7188 28.2834 11.5994C28.7805 11.5398 30.1129 11.4006 30.3118 11.1619V12.2358C30.3118 13.1903 29.5561 14.125 28.1641 14.125ZM33.6266 15H34.7999V10.1676C34.7999 9.13352 35.6152 8.37784 36.7289 8.37784C37.0421 8.37784 37.3652 8.4375 37.4448 8.45739V7.2642C37.3105 7.25426 37.0023 7.24432 36.8283 7.24432C35.9135 7.24432 35.1181 7.76136 34.8397 8.51705H34.7601V7.36364H33.6266V15ZM41.8049 15.1591C43.356 15.1591 44.4895 14.3835 44.8475 13.2301L43.714 12.9119C43.4157 13.7074 42.7246 14.1051 41.8049 14.1051C40.4277 14.1051 39.4782 13.2152 39.4235 11.5795H44.9668V11.0824C44.9668 8.23864 43.2765 7.2642 41.6855 7.2642C39.6174 7.2642 38.2452 8.89489 38.2452 11.2415C38.2452 13.5881 39.5975 15.1591 41.8049 15.1591ZM39.4235 10.5653C39.503 9.37713 40.3432 8.31818 41.6855 8.31818C42.9583 8.31818 43.7736 9.27273 43.7736 10.5653H39.4235Z" fill="#6D6E76"/>
<path d="M11.7656 35.1875V38.1172H5.60156V44H2.34375V28.2969H13.0547V31.2266H5.60156V35.1875H11.7656ZM21.8906 31.8594C23.0469 31.8594 24.0391 32.1094 24.8672 32.6094C25.7109 33.1094 26.3516 33.8047 26.7891 34.6953C27.2422 35.5703 27.4688 36.5859 27.4688 37.7422V39.0078H18.8906C19.0469 39.8047 19.4375 40.4453 20.0625 40.9297C20.6875 41.4141 21.4531 41.6562 22.3594 41.6562C23.2188 41.6562 24 41.4844 24.7031 41.1406C25.4062 40.7969 25.9688 40.4453 26.3906 40.0859L26.3672 42.8516C25.9922 43.1797 25.4297 43.5156 24.6797 43.8594C23.9453 44.1875 23.1328 44.3516 22.2422 44.3516C21.0703 44.3516 20 44.0859 19.0312 43.5547C18.0781 43.0234 17.3125 42.2969 16.7344 41.375C16.1719 40.4531 15.8906 39.3984 15.8906 38.2109C15.8906 37.0547 16.1484 36 16.6641 35.0469C17.1797 34.0938 17.8906 33.3281 18.7969 32.75C19.7031 32.1562 20.7344 31.8594 21.8906 31.8594ZM21.8203 34.4609C21.0859 34.4609 20.4688 34.6875 19.9688 35.1406C19.4688 35.5938 19.125 36.2031 18.9375 36.9688H24.6094C24.5469 36.125 24.2344 35.5 23.6719 35.0938C23.1094 34.6719 22.4922 34.4609 21.8203 34.4609ZM34.875 31.8594C35.5156 31.8594 36.1641 32.0078 36.8203 32.3047C37.4766 32.6016 38.0234 33 38.4609 33.5V32.1641H41.4375V44H38.4609V42.0078C38.1172 42.6484 37.6172 43.2031 36.9609 43.6719C36.3047 44.125 35.5391 44.3516 34.6641 44.3516C33.7109 44.3516 32.8281 44.1094 32.0156 43.625C31.2188 43.1406 30.5781 42.4375 30.0938 41.5156C29.6094 40.5938 29.3672 39.4766 29.3672 38.1641C29.3672 36.8516 29.6094 35.7266 30.0938 34.7891C30.5938 33.8516 31.2578 33.1328 32.0859 32.6328C32.9297 32.1172 33.8594 31.8594 34.875 31.8594ZM35.4844 34.7656C34.8594 34.7656 34.3203 34.9297 33.8672 35.2578C33.4297 35.5703 33.0859 35.9844 32.8359 36.5C32.5859 37.0156 32.4609 37.5703 32.4609 38.1641C32.4609 39.0547 32.7266 39.8125 33.2578 40.4375C33.8047 41.0625 34.5234 41.375 35.4141 41.375C35.9453 41.375 36.4375 41.2344 36.8906 40.9531C37.3594 40.6719 37.7344 40.2812 38.0156 39.7812C38.3125 39.2656 38.4609 38.6484 38.4609 37.9297V36.2422C38.0391 35.7891 37.5781 35.4297 37.0781 35.1641C36.5938 34.8984 36.0625 34.7656 35.4844 34.7656ZM49.3828 28.7188V32.1641H52.6641V34.6484H49.3828V39.7578C49.3828 40.2891 49.5 40.7109 49.7344 41.0234C49.9844 41.3203 50.3516 41.4688 50.8359 41.4688C51.2578 41.4688 51.6172 41.4219 51.9141 41.3281C52.2266 41.2344 52.5156 41.1016 52.7812 40.9297V43.2969C52.4844 43.5938 52.1094 43.8438 51.6562 44.0469C51.2188 44.25 50.6641 44.3516 49.9922 44.3516C48.9297 44.3516 48.0625 44.0156 47.3906 43.3438C46.7344 42.6562 46.4062 41.7188 46.4062 40.5312V34.6484H44.2734V33.125C45.0234 32.8594 45.7109 32.3594 46.3359 31.625C46.9766 30.8906 47.4844 29.9219 47.8594 28.7188H49.3828ZM66.2812 32.1641V39.2188C66.2812 40.2656 66.0469 41.1719 65.5781 41.9375C65.1094 42.6875 64.4688 43.2656 63.6562 43.6719C62.8594 44.0781 61.9531 44.2812 60.9375 44.2812C59.9062 44.2812 58.9844 44.0781 58.1719 43.6719C57.375 43.2656 56.7422 42.6875 56.2734 41.9375C55.8203 41.1719 55.5938 40.2656 55.5938 39.2188V32.1641H58.5938L58.6172 38.6797C58.6172 39.6016 58.8281 40.2891 59.25 40.7422C59.6719 41.1953 60.2344 41.4219 60.9375 41.4219C61.625 41.4219 62.1797 41.1953 62.6016 40.7422C63.0391 40.2891 63.2578 39.6016 63.2578 38.6797V32.1641H66.2812ZM77.1328 35.4922C76.6328 35.2109 76.1094 35.0703 75.5625 35.0703C74.875 35.0703 74.3047 35.2969 73.8516 35.75C73.3984 36.1875 73 36.7344 72.6562 37.3906V44H69.6797V32.1641H72.6562V34.3906C73.0625 33.6875 73.5391 33.1016 74.0859 32.6328C74.6484 32.1641 75.2812 31.9297 75.9844 31.9297C76.4062 31.9297 76.7891 32 77.1328 32.1406V35.4922ZM84.6094 31.8594C85.7656 31.8594 86.7578 32.1094 87.5859 32.6094C88.4297 33.1094 89.0703 33.8047 89.5078 34.6953C89.9609 35.5703 90.1875 36.5859 90.1875 37.7422V39.0078H81.6094C81.7656 39.8047 82.1562 40.4453 82.7812 40.9297C83.4062 41.4141 84.1719 41.6562 85.0781 41.6562C85.9375 41.6562 86.7188 41.4844 87.4219 41.1406C88.125 40.7969 88.6875 40.4453 89.1094 40.0859L89.0859 42.8516C88.7109 43.1797 88.1484 43.5156 87.3984 43.8594C86.6641 44.1875 85.8516 44.3516 84.9609 44.3516C83.7891 44.3516 82.7188 44.0859 81.75 43.5547C80.7969 43.0234 80.0312 42.2969 79.4531 41.375C78.8906 40.4531 78.6094 39.3984 78.6094 38.2109C78.6094 37.0547 78.8672 36 79.3828 35.0469C79.8984 34.0938 80.6094 33.3281 81.5156 32.75C82.4219 32.1562 83.4531 31.8594 84.6094 31.8594ZM84.5391 34.4609C83.8047 34.4609 83.1875 34.6875 82.6875 35.1406C82.1875 35.5938 81.8438 36.2031 81.6562 36.9688H87.3281C87.2656 36.125 86.9531 35.5 86.3906 35.0938C85.8281 34.6719 85.2109 34.4609 84.5391 34.4609ZM104.156 27.125V44H101.18V42.0078C100.836 42.6484 100.336 43.2031 99.6797 43.6719C99.0234 44.125 98.2578 44.3516 97.3828 44.3516C96.4297 44.3516 95.5469 44.1094 94.7344 43.625C93.9375 43.1406 93.2969 42.4375 92.8125 41.5156C92.3281 40.5938 92.0859 39.4766 92.0859 38.1641C92.0859 36.8516 92.3281 35.7266 92.8125 34.7891C93.3125 33.8516 93.9766 33.1328 94.8047 32.6328C95.6484 32.1172 96.5781 31.8594 97.5938 31.8594C98.2344 31.8594 98.8828 32.0078 99.5391 32.3047C100.195 32.6016 100.742 33 101.18 33.5V27.125H104.156ZM98.2031 34.7891C97.5781 34.7891 97.0391 34.9531 96.5859 35.2812C96.1484 35.5938 95.8047 36.0078 95.5547 36.5234C95.3047 37.0234 95.1797 37.5703 95.1797 38.1641C95.1797 39.0547 95.4453 39.8125 95.9766 40.4375C96.5234 41.0625 97.2422 41.375 98.1328 41.375C98.6641 41.375 99.1562 41.2344 99.6094 40.9531C100.078 40.6719 100.453 40.2812 100.734 39.7812C101.031 39.2656 101.18 38.6484 101.18 37.9297V36.2422C100.758 35.7891 100.297 35.4375 99.7969 35.1875C99.3125 34.9219 98.7812 34.7891 98.2031 34.7891ZM117.328 26C117.891 26 118.375 26.2031 118.781 26.6094C119.188 27 119.391 27.4688 119.391 28.0156C119.391 28.5469 119.188 29.0156 118.781 29.4219C118.375 29.8281 117.891 30.0312 117.328 30.0312C116.766 30.0312 116.281 29.8281 115.875 29.4219C115.484 29.0156 115.289 28.5469 115.289 28.0156C115.289 27.4688 115.484 27 115.875 26.6094C116.281 26.2031 116.766 26 117.328 26ZM119.062 32.1641V44H116.086V34.6953H114.188V32.1641H119.062ZM125.789 32.1641V33.8516C126.148 33.3672 126.633 32.9141 127.242 32.4922C127.867 32.0703 128.578 31.8594 129.375 31.8594C130.578 31.8594 131.586 32.2656 132.398 33.0781C133.211 33.8906 133.617 35.1094 133.617 36.7344V44H130.641L130.617 37.1328C130.617 36.3359 130.422 35.7422 130.031 35.3516C129.656 34.9609 129.133 34.7656 128.461 34.7656C127.93 34.7656 127.43 34.9375 126.961 35.2812C126.508 35.625 126.117 36.0312 125.789 36.5V44H122.812V32.1641H125.789Z" fill="#6D6E76"/>
</svg>
