<svg width="16" height="17" viewBox="0 0 16 17" fill="none" xmlns="http://www.w3.org/2000/svg">
<path d="M5.03344 15.4068C11.0697 15.4068 14.3722 10.0919 14.3722 5.48434C14.3722 5.33492 14.3691 5.18219 14.3628 5.03277C15.0052 4.53914 15.5597 3.9277 16 3.22719C15.4017 3.51003 14.7664 3.69475 14.1159 3.77504C14.8009 3.33883 15.3137 2.65356 15.5594 1.84627C14.915 2.252 14.2104 2.5382 13.4756 2.69262C12.9806 2.13371 12.326 1.76364 11.6131 1.63964C10.9003 1.51563 10.1688 1.6446 9.53183 2.00659C8.89486 2.36858 8.38787 2.94344 8.08923 3.64228C7.7906 4.34113 7.71695 5.12504 7.87969 5.87281C6.575 5.80325 5.29862 5.44314 4.13332 4.81584C2.96802 4.18853 1.9398 3.30804 1.11531 2.23143C0.696266 2.99907 0.568038 3.90743 0.756687 4.77192C0.945337 5.6364 1.43671 6.39213 2.13094 6.88551C1.60975 6.86793 1.09998 6.71883 0.64375 6.45055V6.49371C0.643283 7.29929 0.905399 8.08018 1.38554 8.70365C1.86568 9.32711 2.53422 9.75467 3.2775 9.91363C2.7947 10.054 2.28799 10.0744 1.79656 9.9734C2.0063 10.6662 2.41438 11.2721 2.96385 11.7067C3.51331 12.1412 4.17675 12.3826 4.86156 12.3972C3.69895 13.3676 2.26278 13.8939 0.784375 13.8914C0.522191 13.8909 0.260266 13.8739 0 13.8402C1.5019 14.864 3.24902 15.4077 5.03344 15.4068Z" fill="#232536"/>
</svg>
