<svg width="112" height="17" viewBox="0 0 112 17" fill="none" xmlns="http://www.w3.org/2000/svg">
<g clip-path="url(#clip0_856_1019)">
<path d="M16 8C16 3.58172 12.4183 0 8 0C3.58172 0 0 3.58172 0 8C0 11.993 2.92547 15.3027 6.75 15.9028V10.3125H4.71875V8H6.75V6.2375C6.75 4.2325 7.94438 3.125 9.77172 3.125C10.6467 3.125 11.5625 3.28125 11.5625 3.28125V5.25H10.5538C9.56 5.25 9.25 5.86672 9.25 6.5V8H11.4688L11.1141 10.3125H9.25V15.9028C13.0745 15.3027 16 11.993 16 8Z" fill="#232536"/>
</g>
<path d="M37.0334 15.4068C43.0697 15.4068 46.3722 10.0919 46.3722 5.48434C46.3722 5.33492 46.3691 5.18219 46.3628 5.03277C47.0052 4.53914 47.5597 3.9277 48 3.22719C47.4017 3.51003 46.7664 3.69475 46.1159 3.77504C46.8009 3.33883 47.3137 2.65356 47.5594 1.84627C46.915 2.252 46.2104 2.5382 45.4756 2.69262C44.9806 2.13371 44.326 1.76364 43.6131 1.63964C42.9003 1.51563 42.1688 1.6446 41.5318 2.00659C40.8949 2.36858 40.3879 2.94344 40.0892 3.64228C39.7906 4.34113 39.717 5.12504 39.8797 5.87281C38.575 5.80325 37.2986 5.44314 36.1333 4.81584C34.968 4.18853 33.9398 3.30804 33.1153 2.23143C32.6963 2.99907 32.568 3.90743 32.7567 4.77192C32.9453 5.6364 33.4367 6.39213 34.1309 6.88551C33.6098 6.86793 33.1 6.71883 32.6438 6.45055V6.49371C32.6433 7.29929 32.9054 8.08018 33.3855 8.70365C33.8657 9.32711 34.5342 9.75467 35.2775 9.91363C34.7947 10.054 34.288 10.0744 33.7966 9.9734C34.0063 10.6662 34.4144 11.2721 34.9638 11.7067C35.5133 12.1412 36.1767 12.3826 36.8616 12.3972C35.6989 13.3676 34.2628 13.8939 32.7844 13.8914C32.5222 13.8909 32.2603 13.8739 32 13.8402C33.5019 14.864 35.249 15.4077 37.0334 15.4068Z" fill="#232536"/>
<g clip-path="url(#clip1_856_1019)">
<path d="M72 1.44062C74.1375 1.44062 74.3906 1.45 75.2313 1.4875C76.0125 1.52187 76.4344 1.65313 76.7156 1.7625C77.0875 1.90625 77.3563 2.08125 77.6344 2.35937C77.9156 2.64062 78.0875 2.90625 78.2313 3.27813C78.3406 3.55937 78.4719 3.98437 78.5063 4.7625C78.5438 5.60625 78.5531 5.85938 78.5531 7.99375C78.5531 10.1312 78.5438 10.3844 78.5063 11.225C78.4719 12.0063 78.3406 12.4281 78.2313 12.7094C78.0875 13.0813 77.9125 13.35 77.6344 13.6281C77.3531 13.9094 77.0875 14.0813 76.7156 14.225C76.4344 14.3344 76.0094 14.4656 75.2313 14.5C74.3875 14.5375 74.1344 14.5469 72 14.5469C69.8625 14.5469 69.6094 14.5375 68.7688 14.5C67.9875 14.4656 67.5656 14.3344 67.2844 14.225C66.9125 14.0813 66.6438 13.9062 66.3656 13.6281C66.0844 13.3469 65.9125 13.0813 65.7688 12.7094C65.6594 12.4281 65.5281 12.0031 65.4938 11.225C65.4563 10.3813 65.4469 10.1281 65.4469 7.99375C65.4469 5.85625 65.4563 5.60312 65.4938 4.7625C65.5281 3.98125 65.6594 3.55937 65.7688 3.27813C65.9125 2.90625 66.0875 2.6375 66.3656 2.35937C66.6469 2.07812 66.9125 1.90625 67.2844 1.7625C67.5656 1.65313 67.9906 1.52187 68.7688 1.4875C69.6094 1.45 69.8625 1.44062 72 1.44062ZM72 0C69.8281 0 69.5563 0.009375 68.7031 0.046875C67.8531 0.084375 67.2688 0.221875 66.7625 0.41875C66.2344 0.625 65.7875 0.896875 65.3438 1.34375C64.8969 1.7875 64.625 2.23438 64.4188 2.75938C64.2219 3.26875 64.0844 3.85 64.0469 4.7C64.0094 5.55625 64 5.82812 64 8C64 10.1719 64.0094 10.4437 64.0469 11.2969C64.0844 12.1469 64.2219 12.7312 64.4188 13.2375C64.625 13.7656 64.8969 14.2125 65.3438 14.6562C65.7875 15.1 66.2344 15.375 66.7594 15.5781C67.2688 15.775 67.85 15.9125 68.7 15.95C69.5531 15.9875 69.825 15.9969 71.9969 15.9969C74.1688 15.9969 74.4406 15.9875 75.2938 15.95C76.1438 15.9125 76.7281 15.775 77.2344 15.5781C77.7594 15.375 78.2063 15.1 78.65 14.6562C79.0938 14.2125 79.3688 13.7656 79.5719 13.2406C79.7688 12.7312 79.9063 12.15 79.9438 11.3C79.9813 10.4469 79.9906 10.175 79.9906 8.00313C79.9906 5.83125 79.9813 5.55937 79.9438 4.70625C79.9063 3.85625 79.7688 3.27187 79.5719 2.76562C79.375 2.23437 79.1031 1.7875 78.6563 1.34375C78.2125 0.9 77.7656 0.625 77.2406 0.421875C76.7313 0.225 76.15 0.0875 75.3 0.05C74.4438 0.009375 74.1719 0 72 0Z" fill="#232536"/>
<path d="M72 3.89062C69.7312 3.89062 67.8906 5.73125 67.8906 8C67.8906 10.2688 69.7312 12.1094 72 12.1094C74.2687 12.1094 76.1094 10.2688 76.1094 8C76.1094 5.73125 74.2687 3.89062 72 3.89062ZM72 10.6656C70.5281 10.6656 69.3344 9.47188 69.3344 8C69.3344 6.52813 70.5281 5.33437 72 5.33437C73.4719 5.33437 74.6656 6.52813 74.6656 8C74.6656 9.47188 73.4719 10.6656 72 10.6656Z" fill="#232536"/>
<path d="M77.2313 3.72842C77.2313 4.25967 76.8 4.68779 76.2719 4.68779C75.7406 4.68779 75.3125 4.25654 75.3125 3.72842C75.3125 3.19717 75.7438 2.76904 76.2719 2.76904C76.8 2.76904 77.2313 3.20029 77.2313 3.72842Z" fill="#232536"/>
</g>
<g clip-path="url(#clip2_856_1019)">
<path d="M110.816 0H97.1812C96.5281 0 96 0.515625 96 1.15313V14.8438C96 15.4813 96.5281 16 97.1812 16H110.816C111.469 16 112 15.4813 112 14.8469V1.15313C112 0.515625 111.469 0 110.816 0ZM100.747 13.6344H98.3719V5.99687H100.747V13.6344ZM99.5594 4.95625C98.7969 4.95625 98.1813 4.34062 98.1813 3.58125C98.1813 2.82188 98.7969 2.20625 99.5594 2.20625C100.319 2.20625 100.934 2.82188 100.934 3.58125C100.934 4.3375 100.319 4.95625 99.5594 4.95625ZM109.634 13.6344H107.262V9.92188C107.262 9.0375 107.247 7.89687 106.028 7.89687C104.794 7.89687 104.606 8.8625 104.606 9.85938V13.6344H102.238V5.99687H104.512V7.04063H104.544C104.859 6.44063 105.634 5.80625 106.788 5.80625C109.191 5.80625 109.634 7.3875 109.634 9.44375V13.6344Z" fill="#232536"/>
</g>
<defs>
<clipPath id="clip0_856_1019">
<rect width="16" height="16" fill="white"/>
</clipPath>
<clipPath id="clip1_856_1019">
<rect width="16" height="16" fill="white" transform="translate(64)"/>
</clipPath>
<clipPath id="clip2_856_1019">
<rect width="16" height="16" fill="white" transform="translate(96)"/>
</clipPath>
</defs>
</svg>
